<?xml version="1.0" ?><!DOCTYPE svg  PUBLIC '-//W3C//DTD SVG 1.1//EN'  'http://www.w3.org/Graphics/SVG/1.1/DTD/svg11.dtd'><svg enable-background="new 0 0 64 64" height="64px" id="Layer_1" version="1.1" viewBox="0 0 64 64" width="64px" xml:space="preserve" xmlns="http://www.w3.org/2000/svg" xmlns:xlink="http://www.w3.org/1999/xlink"><g><rect fill="#31CFE8" height="48" width="60" x="2" y="10"/><rect fill="none" height="48" stroke="#000000" stroke-linejoin="round" stroke-miterlimit="10" stroke-width="2" width="60" x="2" y="10"/><path d="M36,6c-1.023,0-2.048,0.391-2.828,1.172C32.391,7.953,32,8.977,32,10v48c0-1.023,0.391-2.047,1.172-2.828   C33.952,54.391,34.977,54,36,54h22V6H36z" fill="#FFFFFF"/><path d="M36,6   c-1.023,0-2.048,0.391-2.828,1.172C32.391,7.953,32,8.977,32,10v48c0-1.023,0.391-2.047,1.172-2.828C33.952,54.391,34.977,54,36,54   h22V6H36z" fill="none" stroke="#000000" stroke-linejoin="round" stroke-miterlimit="10" stroke-width="2"/><path d="M30.828,7.172C30.048,6.391,29.023,6,28,6H6v48h22c1.023,0,2.048,0.391,2.828,1.172   C31.609,55.953,32,56.977,32,58V10C32,8.977,31.609,7.953,30.828,7.172z" fill="#FFFFFF"/><path d="M30.828,7.172   C30.048,6.391,29.023,6,28,6H6v48h22c1.023,0,2.048,0.391,2.828,1.172C31.609,55.953,32,56.977,32,58V10   C32,8.977,31.609,7.953,30.828,7.172z" fill="none" stroke="#000000" stroke-linejoin="round" stroke-miterlimit="10" stroke-width="2"/><line fill="none" stroke="#000000" stroke-linejoin="round" stroke-miterlimit="10" stroke-width="2" x1="11" x2="27" y1="16" y2="16"/><line fill="none" stroke="#000000" stroke-linejoin="round" stroke-miterlimit="10" stroke-width="2" x1="11" x2="27" y1="20" y2="20"/><line fill="none" stroke="#000000" stroke-linejoin="round" stroke-miterlimit="10" stroke-width="2" x1="11" x2="27" y1="24" y2="24"/><line fill="none" stroke="#000000" stroke-linejoin="round" stroke-miterlimit="10" stroke-width="2" x1="11" x2="27" y1="28" y2="28"/><line fill="none" stroke="#000000" stroke-linejoin="round" stroke-miterlimit="10" stroke-width="2" x1="11" x2="27" y1="32" y2="32"/><line fill="none" stroke="#000000" stroke-linejoin="round" stroke-miterlimit="10" stroke-width="2" x1="11" x2="27" y1="36" y2="36"/><line fill="none" stroke="#000000" stroke-linejoin="round" stroke-miterlimit="10" stroke-width="2" x1="11" x2="27" y1="40" y2="40"/><line fill="none" stroke="#000000" stroke-linejoin="round" stroke-miterlimit="10" stroke-width="2" x1="11" x2="27" y1="44" y2="44"/><line fill="none" stroke="#000000" stroke-linejoin="round" stroke-miterlimit="10" stroke-width="2" x1="37" x2="53" y1="16" y2="16"/><line fill="none" stroke="#000000" stroke-linejoin="round" stroke-miterlimit="10" stroke-width="2" x1="37" x2="53" y1="20" y2="20"/><line fill="none" stroke="#000000" stroke-linejoin="round" stroke-miterlimit="10" stroke-width="2" x1="37" x2="53" y1="24" y2="24"/><line fill="none" stroke="#000000" stroke-linejoin="round" stroke-miterlimit="10" stroke-width="2" x1="37" x2="53" y1="28" y2="28"/><line fill="none" stroke="#000000" stroke-linejoin="round" stroke-miterlimit="10" stroke-width="2" x1="37" x2="53" y1="32" y2="32"/><line fill="none" stroke="#000000" stroke-linejoin="round" stroke-miterlimit="10" stroke-width="2" x1="37" x2="53" y1="36" y2="36"/><line fill="none" stroke="#000000" stroke-linejoin="round" stroke-miterlimit="10" stroke-width="2" x1="37" x2="53" y1="40" y2="40"/><line fill="none" stroke="#000000" stroke-linejoin="round" stroke-miterlimit="10" stroke-width="2" x1="37" x2="53" y1="44" y2="44"/></g></svg>